<?xml version="1.0" encoding="utf-8"?>
<svg class="svg-review-stars" width="20px" height="20px" viewBox="0.078 0.078 27 27" preserveAspectRatio="none" xmlns="http://www.w3.org/2000/svg">
  <path d="M 25.816 10.807 C 25.816 11.015 25.661 11.274 25.403 11.533 L 20.077 16.771 L 21.318 24.188 C 21.318 24.24 21.318 24.344 21.318 24.448 C 21.318 24.655 21.266 24.862 21.163 24.966 C 21.059 25.122 20.956 25.226 20.749 25.226 C 20.542 25.226 20.336 25.122 20.129 25.018 L 13.512 21.543 L 6.894 25.018 C 6.688 25.122 6.481 25.226 6.274 25.226 C 6.067 25.226 5.912 25.122 5.808 24.966 C 5.705 24.862 5.653 24.655 5.653 24.448 C 5.653 24.395 5.653 24.292 5.705 24.188 L 6.946 16.771 L 1.569 11.533 C 1.363 11.222 1.207 11.015 1.207 10.807 C 1.207 10.444 1.517 10.185 2.034 10.133 L 9.478 9.043 L 12.787 2.301 C 12.994 1.886 13.201 1.679 13.511 1.679 C 13.821 1.679 14.028 1.886 14.234 2.301 L 17.543 9.043 L 24.987 10.133 C 25.504 10.185 25.814 10.444 25.814 10.807 Z" fill="#F39019" data-reactid="1638"/>
</svg>