<?xml version="1.0" encoding="utf-8"?>
<svg class="svg-review-stars" width="20px" height="20px" viewBox="0.078 0.078 27 27" preserveAspectRatio="none" xmlns="http://www.w3.org/2000/svg">
  <g id="half-star" data-reactid="1646" transform="matrix(0.757301, 0, 0, 0.713939, 0.785705, 1.569595)">
    <path d="M32.8661685,13.9693034 L25.632735,21.3950538 L27.3180645,31.9084955 L27.3180645,32.2766658 C27.3180645,32.5707317 27.2472805,32.8647975 27.1068365,33.0118305 C26.9663923,33.2329681 26.8259482,33.3800011 26.54506,33.3800011 C26.2641717,33.3800011 25.9832835,33.2329681 25.7023952,33.0859352 L16.7139724,28.1597442 L7.7255495,33.0859352 C7.4446613,33.2329681 7.16377307,33.3800011 6.88288485,33.3800011 C6.60199665,33.3800011 6.3907687,33.2329681 6.2503246,33.0118305 C6.10988048,32.8647975 6.03909665,32.5707317 6.03909665,32.2766658 C6.03909665,32.2025613 6.03909665,32.0555284 6.10988048,31.9084955 L7.79520978,21.3950538 L0.492116155,13.9693034 C0.211227939,13.5282046 0,13.2341388 0,12.940073 C0,12.4248696 0.421332325,12.0578755 1.12355286,11.9837709 L11.2355287,10.4393371 L15.7297401,0.882197503 C16.0106284,0.294065834 16.2915166,0 16.7128489,0 C17.1341812,0 17.4150694,0.294065834 17.6959577,0.882197503 L22.1901691,10.4393371 L32.302145,11.9837709 C33.0043655,12.0578755 33.4256977,12.4248696 33.4256977,12.940073 C33.4279448,13.2341388 33.216717,13.6023092 32.8661685,13.9693034 L32.8661685,13.9693034 Z" id="Fill-119-icon-Copy-4" fill="#BFBFBF" data-reactid="1647"/>
    <path d="M16.7139724,28.163637 L7.7255495,33.090509 C7.4446613,33.2375623 7.16377307,33.3846155 6.88288485,33.3846155 C6.60199665,33.3846155 6.3907687,33.2375623 6.2503246,33.016394 C6.10988047,32.8693408 6.03909665,32.5752343 6.03909665,32.2811278 C6.03909665,32.207013 6.03909665,32.0599598 6.10988047,31.9129065 L7.79520978,21.3980114 L0.492116155,13.9712345 C0.211227939,13.5300748 0,13.2359683 0,12.9418618 C0,12.4265872 0.421332325,12.0595423 1.12355286,11.9854275 L11.2355286,10.4407802 L15.7297401,0.882319458 C16.0106283,0.294106485 16.2915165,0 16.7128489,0 C17.1341812,0 16.7139724,28.163637 16.7139724,28.163637 L16.7139724,28.163637 Z" id="Fill-119-icon-Copy-4" fill="#F48E00" data-reactid="1648"/>
  </g>
</svg>